<svg xmlns="http://www.w3.org/2000/svg" width="1024" height="1024" viewBox="0 0 1024 1024">
  <defs>
    <linearGradient id="bg" x1="0" y1="0" x2="1" y2="1">
      <stop offset="0" stop-color="#FFFFFF"/>
      <stop offset="0.56" stop-color="#FAF9F7"/>
      <stop offset="1" stop-color="#F6F3F5"/>
    </linearGradient>
    <radialGradient id="wash" cx="0.25" cy="0.78" r="0.72">
      <stop offset="0" stop-color="#8171F2" stop-opacity="0.13"/>
      <stop offset="0.55" stop-color="#FFFFFF" stop-opacity="0"/>
      <stop offset="1" stop-color="#FFAA86" stop-opacity="0.08"/>
    </radialGradient>
    <linearGradient id="orbit" x1="0.12" y1="0.82" x2="0.88" y2="0.22">
      <stop offset="0" stop-color="#6E5DE7"/>
      <stop offset="0.48" stop-color="#C783F2"/>
      <stop offset="1" stop-color="#FF9A73"/>
    </linearGradient>
    <filter id="shadow" x="-20%" y="-20%" width="140%" height="150%">
      <feDropShadow dx="0" dy="18" stdDeviation="22" flood-color="#151722" flood-opacity="0.12"/>
    </filter>
  </defs>
  <rect x="52" y="52" width="920" height="920" rx="218" fill="url(#bg)" stroke="#E8E5E6" stroke-width="3"/>
  <rect x="52" y="52" width="920" height="920" rx="218" fill="url(#wash)"/>
  <g filter="url(#shadow)">
    <path d="M313 701 L340 390 Q343 349 375 372 L459 455 Q484 441 512 441 Q540 441 565 455 L649 372 Q681 349 684 390 L711 701 Q714 759 661 791 Q599 829 512 829 Q425 829 363 791 Q310 759 313 701Z" fill="#292B35"/>
    <ellipse cx="427" cy="572" rx="25" ry="31" fill="#FBFAF8"/>
    <ellipse cx="597" cy="572" rx="25" ry="31" fill="#FBFAF8"/>
    <path d="M337 598 L273 581 M337 630 L267 632 M687 598 L751 581 M687 630 L757 632" fill="none" stroke="#292B35" stroke-width="16" stroke-linecap="round"/>
  </g>
  <path d="M255 704 C360 810 554 828 712 742 C793 698 851 633 872 571 C894 505 862 467 789 458" fill="none" stroke="url(#orbit)" stroke-width="46" stroke-linecap="round"/>
  <path d="M260 699 C373 779 554 788 700 713" fill="none" stroke="#FFFFFF" stroke-opacity="0.45" stroke-width="8" stroke-linecap="round"/>
</svg>
